<svg xmlns="http://www.w3.org/2000/svg" viewBox="0 0 837.865 658.418">
  <path fill="#2f2e41"
    d="M253.615 253.877c-4.484-5.81-10.82-11.185-11.222-18.354-.368-6.576 4.535-13.104 2.467-19.395-1.59-4.837-6.835-7.755-11.96-9.3a46.485 46.485 0 0 0-29.873 1.15l.519-.366c-5.835-2.079-12.655.067-17.245 4.04-4.591 3.975-7.319 9.483-9.436 15.003s-3.757 11.241-6.698 16.416c-2.942 5.175-7.446 9.881-13.388 11.67 1.99 3.968 8.208 5.329 11.855 2.595a14.996 14.996 0 0 0 2.494-2.58l7.298-8.873c2.503 4.452-1.236 10.596 1.84 14.717 1.587 2.125 4.484 2.932 7.175 3.511a129.781 129.781 0 0 0 63.492-2.355c1.659-.489 3.489-1.162 4.177-2.664.795-1.733-.317-3.688-1.495-5.215Z" />
  <path fill="#ffb7b7"
    d="M313.25 276.55a11.265 11.265 0 0 0-.256 1.754l-45.97 26.52-11.174-6.432-11.911 15.594 18.674 13.31a8.561 8.561 0 0 0 10.27-.25l47.404-37.397a11.233 11.233 0 1 0-7.037-13.1Z" />
  <path fill="#401197"
    d="m265.487 306.08-14.857 19.256a4.816 4.816 0 0 1-7.281.399l-16.82-17.466a13.374 13.374 0 0 1 16.402-21.129l21.095 11.796a4.816 4.816 0 0 1 1.461 7.144Z" />
  <path fill="#ffb7b7" d="m245.04 641.589 13.119-.001 6.241-50.604-19.363.001.003 50.604z" />
  <path fill="#2f2e41" d="m241.693 637.306 25.837-.001h.001a16.466 16.466 0 0 1 16.466 16.465v.535l-42.303.001Z" />
  <path fill="#ffb7b7" d="m155.149 641.589 13.12-.001 6.241-50.604-19.363.001.002 50.604z" />
  <path fill="#2f2e41" d="m151.803 637.306 25.837-.001a16.466 16.466 0 0 1 16.466 16.465v.535l-42.302.001Z" />
  <circle cx="395.69" cy="365.04" r="22.674" fill="#ffb7b7" transform="rotate(-83.736 237.768 405.66)" />
  <path fill="#2f2e41"
    d="m227.89 278.24 13.357 6.617s14.924 25.936 6.363 50.549c-4.156 11.95 7.548 50.042 7.548 50.042s18.135 172.543 18.193 225.796c-22.53 3.464-43.933 7.744-45.003-2.957s-12.784-137.23-12.784-137.23-16.11 140.44-28.95 142.58-38.525-1.07-38.525-1.07 20.39-205.716 34.301-218.558l2.14-10.701-.057-96.057 16.028-7.65Z" />
  <path fill="#ffb7b7"
    d="M180.105 424.065a11.496 11.496 0 0 0 3.522-17.272l15.535-103.547-20.296-.975-12.11 103.119a11.558 11.558 0 0 0 13.35 18.675Z" />
  <path fill="#401197"
    d="m198.72 329.19-24.272-1.532a4.816 4.816 0 0 1-4.406-5.81l5.057-23.714a13.374 13.374 0 0 1 26.69 1.764l2.034 24.083a4.816 4.816 0 0 1-5.102 5.21Z" />
  <path fill="#2f2e41"
    d="M238.386 229.51c-.883-4.008-3.753-7.329-7.059-9.76a28.911 28.911 0 0 0-36.959 2.247 18.887 18.887 0 0 0-5.708 9.149 11.221 11.221 0 0 0 2.392 10.217l.453.284c-.411-1.742.942-3.483 2.559-4.252a20.45 20.45 0 0 1 5.22-1.17 19.193 19.193 0 0 0 13.01-9.18 21.675 21.675 0 0 0 12.421 12.945c2.997 1.172 11.227 2.783 14.08 1.295 3.64-1.897.475-7.767-.409-11.775Z" />
  <path fill="#e6e6e6"
    d="M71.554 610.33a24.215 24.215 0 0 0 23.383-4.119c8.19-6.874 10.758-18.196 12.847-28.682l6.18-31.016-12.938 8.908c-9.305 6.406-18.819 13.019-25.26 22.298s-9.253 21.947-4.078 31.988"
    data-name="Path 438" />
  <path fill="#f2f2f2"
    d="M73.552 650.04c-1.629-11.863-3.304-23.88-2.159-35.871 1.015-10.65 4.264-21.049 10.878-29.58a49.206 49.206 0 0 1 12.625-11.44c1.262-.796 2.424 1.204 1.167 1.997a46.78 46.78 0 0 0-18.504 22.326c-4.029 10.246-4.676 21.415-3.982 32.3.42 6.582 1.311 13.121 2.206 19.652a1.198 1.198 0 0 1-.808 1.423 1.163 1.163 0 0 1-1.422-.808Z"
    data-name="Path 439" />
  <path fill="#e6e6e6"
    d="M85.273 631.004a17.825 17.825 0 0 0 15.531 8.019c7.865-.374 14.418-5.86 20.317-11.07l17.452-15.41-11.55-.552c-8.306-.398-16.826-.771-24.738 1.793S87.078 622.51 85.631 630.7"
    data-name="Path 442" />
  <path fill="#f2f2f2"
    d="M68.949 656.86c7.84-13.871 16.932-29.288 33.18-34.215a37.026 37.026 0 0 1 13.956-1.441c1.482.128 1.112 2.411-.367 2.284a34.398 34.398 0 0 0-22.272 5.892c-6.28 4.275-11.17 10.218-15.307 16.52-2.535 3.86-4.806 7.884-7.077 11.902-.725 1.285-2.847.357-2.113-.942Z"
    data-name="Path 443" />
  <path fill="#ccc"
    d="M598.71 400.413c-14.71-19.687-41.636-24.439-55.015-14.44s-16.453 37.165-1.742 56.852c13.617 18.223 38.288 23.193 51.876 16.366a1.706 1.706 0 0 0-.008.647l.767 3.787a1.728 1.728 0 0 0 2.757 1.02l6.488-5.069a1.728 1.728 0 0 0-.322-2.923l-3.49-1.66a1.71 1.71 0 0 0-.383-.12c10.474-11.073 12.72-36.198-.927-54.46Z" />
  <path fill="#fff"
    d="M566.532 392.98a28.432 28.432 0 0 1 23.812 31.084c-.158 1.66 2.435 1.65 2.592 0a31.088 31.088 0 0 0-25.715-33.584c-1.632-.277-2.333 2.22-.69 2.5Z" />
  <path fill="#ccc"
    d="M622.69 60.105c12.861-20.942 7.332-47.718-6.9-56.46s-40.615-1.562-53.477 19.38c-11.905 19.385-7.411 44.147 3.952 54.253a1.706 1.706 0 0 0-.604.232l-3.237 2.11a1.728 1.728 0 0 0 .072 2.94l7.106 4.156a1.728 1.728 0 0 0 2.597-1.378l.253-3.856a1.71 1.71 0 0 0-.03-.401c14.16 5.644 38.337-1.55 50.268-20.976Z" />
  <path fill="#fff"
    d="M617.712 27.456a28.432 28.432 0 0 1-20.092 33.61c-1.6.465-.633 2.871.958 2.408a31.088 31.088 0 0 0 21.711-36.3c-.344-1.62-2.924-1.349-2.577.282Z" />
  <path fill="#401197"
    d="M394.757 159.471c-1.076-24.553-20.654-43.637-37.34-42.906s-34.522 21.454-33.446 46.007c.995 22.727 18.587 40.723 33.662 42.73a1.706 1.706 0 0 0-.371.53l-1.5 3.562a1.728 1.728 0 0 0 1.706 2.395l8.215-.537a1.728 1.728 0 0 0 1.38-2.596l-1.95-3.337a1.711 1.711 0 0 0-.25-.315c14.891-3.256 30.891-22.757 29.894-45.533Z" />
  <path fill="#fff"
    d="M372.346 135.212a28.432 28.432 0 0 1 2.18 39.097c-1.064 1.282 1.085 2.733 2.143 1.459a31.088 31.088 0 0 0-2.347-42.233c-1.192-1.148-3.178.521-1.976 1.677Z" />
  <path fill="#ccc"
    d="M471.267 322.353a40.784 40.784 0 0 1-31.9-18.895c-.966-1.544-2.226-3.24-1.558-5.141a3.38 3.38 0 0 1 3.502-2.34c1.971.24 3.243 2.169 3.486 4.017.276 2.095-1.203 3.74-3.028 4.52-4.461 1.902-8.962-1.038-12.596-3.385-8.28-5.348-17.387-10.184-27.42-10.794-9.282-.564-19.236 3.076-24.4 11.126-.903 1.408 1.34 2.71 2.239 1.308 5.12-7.983 15.472-10.85 24.473-9.617a47.576 47.576 0 0 1 15.313 5.2c2.474 1.283 4.873 2.706 7.224 4.202a46.099 46.099 0 0 0 7.085 4.062c4.132 1.697 9.601 1.565 12.487-2.343 2.693-3.645.612-9.714-3.891-10.739a6.085 6.085 0 0 0-7.128 7.239c.45 2.147 2.066 4.248 3.317 6.002a43.38 43.38 0 0 0 32.795 18.17c1.668.083 1.663-2.51 0-2.592Z" />
  <path fill="#2f2e41"
    d="M720.217 143.756c7.097-3.302 15.81-4.384 23.032-1.316s12.144 10.931 9.81 17.89c-1.06 3.156-3.47 6.259-2.531 9.446.723 2.452 3.245 4.072 5.723 5.223s5.186 2.12 6.978 4.062 2.165 5.285-.073 6.791c-.737.496-1.659.732-2.374 1.255a3.772 3.772 0 0 0-1.164 4.222 8.893 8.893 0 0 0 2.85 3.75c2.541 2.191 5.899 4.699 5.11 7.81a5.478 5.478 0 0 1-3.697 3.457 18.368 18.368 0 0 1-5.427.716l-74.966 2.362a28.422 28.422 0 0 1-7.402-.414 8.762 8.762 0 0 1-5.813-3.905c-1.435-2.657-.493-5.93 1.28-8.411s4.282-4.44 6.355-6.718 3.77-5.122 3.404-8.067c-.292-2.357-1.847-4.395-2.963-6.537s-1.764-4.818-.319-6.789c2.037-2.776 6.927-2.525 9.243-5.112 1.748-1.953 1.41-4.764 1.584-7.282.418-6.056 4.611-11.776 10.58-14.432a20.83 20.83 0 0 1 18.954 1.29Z" />
  <path fill="#9e616a" d="M811.513 443.477v12.26l-47.288 5.833.001-18.095 47.287.002z" />
  <path fill="#2f2e41" d="m823.397 440.35-.001 39.532h-.5a15.387 15.387 0 0 1-15.386-15.387V440.35Z" />
  <path fill="#9e616a" d="m753.056 464.332-3.01 11.884-47.273-5.954 4.443-17.54 45.84 11.61z" />
  <path fill="#2f2e41"
    d="m765.344 464.218-9.705 38.321-.485-.123a15.387 15.387 0 0 1-11.139-18.692v-.001l5.928-23.405Z" />
  <path fill="#2f2e41"
    d="m740.983 326.846 2.553 2.66s16.662 13.065 4.334 47.48l-20.164 58.09 67.588 2.636-1.448 26.544s-98.018 5.452-97.16-10.701 4.474-75.965 4.474-75.965l-20.364-16.354 4.91-27.66Z" />
  <path fill="#2f2e41"
    d="m688.626 353.208-7.83 8.028-26.253 72.165s-4 18 5 22 66.91 26.376 66.91 26.376l5.913-21.283-44.62-26.782 20.797-27.31 3.13-43.046Z" />
  <path fill="#e4e4e4"
    d="m689.043 225.901 66.636-13.324 1.448 36.56-17.261 36.79 3.67 43.58-59.72 10.433 1.87-57.304s-16.038-22.625-6.59-45.43Z" />
  <path fill="#9e616a"
    d="M837.63 139.175a10.743 10.743 0 0 1-10.092 13.02l-63.9 74.097-14.857-18.03 67.483-67.166a10.8 10.8 0 0 1 21.365-1.92Z" />
  <path fill="#e4e4e4"
    d="M777.55 218.207a4.812 4.812 0 0 1-1.591 3.681l-17.968 16.175a13.377 13.377 0 0 1-20.675-16.98l12.542-20.76a4.817 4.817 0 0 1 7.19-1.223l18.755 15.496a4.811 4.811 0 0 1 1.748 3.61Z" />
  <path fill="#9e616a"
    d="M584.558 313.31a10.743 10.743 0 0 1 11.932-11.358l74.294-63.67 11.983 20.054-76.797 56.28a10.8 10.8 0 0 1-21.412-1.307Z" />
  <path fill="#e4e4e4"
    d="M655.816 244.187a4.812 4.812 0 0 1 2.126-3.4l20.191-13.296a13.377 13.377 0 0 1 17.893 19.89l-15.515 18.643a4.817 4.817 0 0 1-7.292.13l-16.217-18.135a4.811 4.811 0 0 1-1.186-3.832Z" />
  <circle cx="717.443" cy="184.282" r="24.561" fill="#9e616a" />
  <path fill="#2f2e41"
    d="M742.57 180.79c-7.756-.623-14.196-8.371-13.39-16.11a13.01 13.01 0 0 1-11.14 13.245c-3.559.392-7.46-.685-10.556 1.11-3.43 1.988-4.528 6.816-8.101 8.533-3.453 1.66-7.838-.603-9.544-4.033s-1.287-7.55-.156-11.21a31.652 31.652 0 0 1 52.69-12.975c3.26 3.28 5.85 7.461 6.27 12.068s-1.717 9.605-5.854 11.675Z" />
  <path fill="#cacaca" d="M382 655.901H1a1 1 0 1 1 0-2h381a1 1 0 1 1 0 2Z" />
</svg>